<svg width="61px" height="27px" viewBox="0 0 61 27" version="1.1" xmlns="http://www.w3.org/2000/svg" xmlns:xlink="http://www.w3.org/1999/xlink">
    <title>未命名</title>
    <g id="页面-1" stroke="none" stroke-width="1" fill="none" fill-rule="evenodd">
        <g id="login_logo" fill="#17A2F5">
            <path d="M40.6667,0 L61,0 L61,20.25 L40.6667,20.25 L40.6667,0 Z M47.4445,6.75 L54.2222,6.75 L54.2222,13.5 L47.4445,13.5 L47.4445,6.75 Z M47.4445,13.5 L47.4445,20.25 L54.2222,20.25 L47.4445,13.5 Z" id="形状"></path>
            <polygon id="路径" fill-rule="nonzero" points="33.889 6.75041 27.1112 6.75041 27.1112 13.5004 33.889 13.5004"></polygon>
            <path d="M0,0 L20.3332,0 L20.3332,20.25 L0,20.25 L0,0 Z M6.77777,6.75 L13.5555,6.75 L13.5555,13.5 L6.77777,13.5 L6.77777,6.75 Z M20.3333,27 L20.3332,20.25 L13.5555,20.25 L20.3333,27 Z" id="形状"></path>
        </g>
        <g id="Boot" transform="translate(17.078, 12.284)" fill="#FF6B35" fill-rule="nonzero">
            <path d="M6.902,2.618 C6.902,0.826 6.09,0 3.276,0 L-3.55271368e-15,0 L-3.55271368e-15,9.716 L3.57,9.716 C6.342,9.716 7.196,8.764 7.196,6.916 C7.196,5.712 6.622,4.956 5.488,4.662 L5.488,4.606 C6.51,4.326 6.902,3.682 6.902,2.618 Z M2.128,8.008 L2.128,5.544 L3.108,5.544 C4.62,5.544 5.04,5.852 5.04,6.776 C5.04,7.77 4.634,8.008 3.108,8.008 L2.128,8.008 Z M2.128,4.004 L2.128,1.694 L2.842,1.694 C4.298,1.694 4.802,1.848 4.802,2.842 C4.802,3.78 4.27,4.004 2.842,4.004 L2.128,4.004 Z" id="形状"></path>
            <path d="M8.64874691,5.936 C8.64874691,8.946 9.92274691,9.856 12.3587469,9.856 C14.7807469,9.856 16.0547469,8.946 16.0547469,5.936 C16.0547469,2.926 14.7807469,2.016 12.3587469,2.016 C9.92274691,2.016 8.64874691,2.926 8.64874691,5.936 Z M12.3587469,8.316 C11.1267469,8.316 10.7347469,7.798 10.7347469,5.936 C10.7347469,4.088 11.1127469,3.528 12.3587469,3.528 C13.5767469,3.528 13.9827469,4.102 13.9827469,5.936 C13.9827469,7.798 13.6187469,8.316 12.3587469,8.316 Z" id="形状"></path>
            <path d="M17.3394938,5.936 C17.3394938,8.946 18.6134938,9.856 21.0494938,9.856 C23.4714938,9.856 24.7454938,8.946 24.7454938,5.936 C24.7454938,2.926 23.4714938,2.016 21.0494938,2.016 C18.6134938,2.016 17.3394938,2.926 17.3394938,5.936 Z M21.0494938,8.316 C19.8174938,8.316 19.4254938,7.798 19.4254938,5.936 C19.4254938,4.088 19.8034938,3.528 21.0494938,3.528 C22.2674938,3.528 22.6734938,4.102 22.6734938,5.936 C22.6734938,7.798 22.3094938,8.316 21.0494938,8.316 Z" id="形状"></path>
            <path d="M29.4742407,8.218 C28.7602407,8.218 28.6062407,8.022 28.6062407,7.126 L28.6062407,3.752 L30.1742407,3.752 L30.1742407,2.156 L28.6062407,2.156 L28.6062407,0.364 L26.5762407,0.364 L26.5762407,2.156 L25.5822407,2.156 L25.5822407,3.752 L26.5762407,3.752 L26.5762407,7.294 C26.5762407,9.268 27.1922407,9.8 29.0962407,9.8 C29.4182407,9.8 29.7542407,9.772 30.0762407,9.73 L30.0762407,8.162 C29.9362407,8.204 29.7402407,8.218 29.4742407,8.218 Z" id="路径"></path>
        </g>
    </g>
</svg>