<?xml version="1.0" encoding="UTF-8"?>
<svg width="251px" height="251px" viewBox="0 0 251 251" version="1.1" xmlns="http://www.w3.org/2000/svg" xmlns:xlink="http://www.w3.org/1999/xlink">
    <title>未命名2</title>
    <g id="页面-1" stroke="none" stroke-width="1" fill="none" fill-rule="evenodd">
        <g id="logo">
            <rect id="矩形" fill="#FFFFFF" fill-rule="nonzero" x="0" y="0" width="250" height="250"></rect>
            <path d="M150,100 L200,100 L200,150 L150,150 L150,100 Z M166.666667,116.666667 L183.333333,116.666667 L183.333333,133.333333 L166.666667,133.333333 L166.666667,116.666667 Z M166.666667,133.333333 L166.666667,150 L183.333333,150 L166.666667,133.333333 Z" id="形状" fill="#17A2F5"></path>
            <polygon id="路径" fill="#17A2F5" fill-rule="nonzero" points="133.333333 116.666667 116.666667 116.666667 116.666667 133.333333 133.333333 133.333333"></polygon>
            <path d="M50,100 L100,100 L100,150 L50,150 L50,100 Z M66.6666667,116.666667 L83.3333333,116.666667 L83.3333333,133.333333 L66.6666667,133.333333 L66.6666667,116.666667 Z M100,166.666667 L100,150 L83.3333333,150 L100,166.666667 Z" id="形状" fill="#17A2F5"></path>
        </g>
        <g id="Boot" transform="translate(102.772, 138.016)" fill="#FF6B35" fill-rule="nonzero">
            <path d="M17.748,6.732 C17.748,2.124 15.66,2.84217094e-14 8.424,2.84217094e-14 L1.42108547e-14,2.84217094e-14 L1.42108547e-14,24.984 L9.18,24.984 C16.308,24.984 18.504,22.536 18.504,17.784 C18.504,14.688 17.028,12.744 14.112,11.988 L14.112,11.844 C16.74,11.124 17.748,9.468 17.748,6.732 Z M5.472,20.592 L5.472,14.256 L7.992,14.256 C11.88,14.256 12.96,15.048 12.96,17.424 C12.96,19.98 11.916,20.592 7.992,20.592 L5.472,20.592 Z M5.472,10.296 L5.472,4.356 L7.308,4.356 C11.052,4.356 12.348,4.752 12.348,7.308 C12.348,9.72 10.98,10.296 7.308,10.296 L5.472,10.296 Z" id="形状"></path>
            <path d="M22.2396349,15.264 C22.2396349,23.004 25.5156349,25.344 31.7796349,25.344 C38.0076349,25.344 41.2836349,23.004 41.2836349,15.264 C41.2836349,7.524 38.0076349,5.184 31.7796349,5.184 C25.5156349,5.184 22.2396349,7.524 22.2396349,15.264 Z M31.7796349,21.384 C28.6116349,21.384 27.6036349,20.052 27.6036349,15.264 C27.6036349,10.512 28.5756349,9.072 31.7796349,9.072 C34.9116349,9.072 35.9556349,10.548 35.9556349,15.264 C35.9556349,20.052 35.0196349,21.384 31.7796349,21.384 Z" id="形状"></path>
            <path d="M44.5872698,15.264 C44.5872698,23.004 47.8632698,25.344 54.1272698,25.344 C60.3552698,25.344 63.6312698,23.004 63.6312698,15.264 C63.6312698,7.524 60.3552698,5.184 54.1272698,5.184 C47.8632698,5.184 44.5872698,7.524 44.5872698,15.264 Z M54.1272698,21.384 C50.9592698,21.384 49.9512698,20.052 49.9512698,15.264 C49.9512698,10.512 50.9232698,9.072 54.1272698,9.072 C57.2592698,9.072 58.3032698,10.548 58.3032698,15.264 C58.3032698,20.052 57.3672698,21.384 54.1272698,21.384 Z" id="形状"></path>
            <path d="M75.7909047,21.132 C73.9549047,21.132 73.5589047,20.628 73.5589047,18.324 L73.5589047,9.648 L77.5909047,9.648 L77.5909047,5.544 L73.5589047,5.544 L73.5589047,0.936 L68.3389047,0.936 L68.3389047,5.544 L65.7829047,5.544 L65.7829047,9.648 L68.3389047,9.648 L68.3389047,18.756 C68.3389047,23.832 69.9229047,25.2 74.8189047,25.2 C75.6469047,25.2 76.5109047,25.128 77.3389047,25.02 L77.3389047,20.988 C76.9789047,21.096 76.4749047,21.132 75.7909047,21.132 Z" id="路径"></path>
        </g>
    </g>
</svg>